<?xml version="1.0" encoding="UTF-8"?>
<svg version="1.1" xmlns="http://www.w3.org/2000/svg" width="70" height="70">
<path d="M0 0 C23.1 0 46.2 0 70 0 C70 23.1 70 46.2 70 70 C46.9 70 23.8 70 0 70 C0 46.9 0 23.8 0 0 Z " fill="#0056C4" transform="translate(0,0)"/>
<path d="M0 0 C23.1 0 46.2 0 70 0 C70 23.1 70 46.2 70 70 C46.9 70 23.8 70 0 70 C0 46.9 0 23.8 0 0 Z M3 9 C1.81558604 11.36882792 1.84200744 12.87829999 1.79125977 15.5222168 C1.77196915 16.46046799 1.75267853 17.39871918 1.73280334 18.36540222 C1.67504151 22.66828604 1.62576316 26.97100156 1.5949707 31.27416992 C1.57340725 33.54092662 1.53932439 35.80760042 1.49243164 38.07397461 C1.42535881 41.34526697 1.39795663 44.61483528 1.37890625 47.88671875 C1.35107559 48.89425705 1.32324493 49.90179535 1.29457092 50.93986511 C1.31232099 57.0432155 2.19120737 60.3592595 6.51402283 64.76179504 C9.19676236 66.9972139 11.0520968 67.13257858 14.4621582 67.16113281 C15.38684402 67.17074036 16.31152985 67.1803479 17.26423645 67.19024658 C18.76732613 67.1966214 18.76732613 67.1966214 20.30078125 67.203125 C21.3293071 67.20882507 22.35783295 67.21452515 23.41752625 67.22039795 C25.59726937 67.22985619 27.77702686 67.23638519 29.95678711 67.24023438 C33.28850352 67.24993017 36.6196006 67.28094216 39.95117188 67.3125 C42.06770467 67.31903093 44.18424187 67.32428105 46.30078125 67.328125 C47.29676834 67.3404718 48.29275543 67.3528186 49.31892395 67.36553955 C55.97038938 67.34417053 59.23823735 66.44758917 64.27490234 61.98388672 C66.86412519 57.50533003 66.61082072 53.34794086 66.6015625 48.2578125 C66.61441788 46.69521194 66.61441788 46.69521194 66.62753296 45.1010437 C66.63900249 42.90056256 66.64003255 40.70000561 66.63134766 38.49951172 C66.62503363 35.14288056 66.67193167 31.78978823 66.72265625 28.43359375 C66.72720335 26.2916711 66.72860871 24.149739 66.7265625 22.0078125 C66.74498199 21.00968536 66.76340149 20.01155823 66.78237915 18.98318481 C66.70303517 12.96862899 65.77749616 9.62874274 61.57992554 5.24191284 C58.71673204 2.99127717 55.95582113 2.86009797 52.45605469 2.79125977 C51.53789978 2.77196915 50.61974487 2.75267853 49.67376709 2.73280334 C45.47509869 2.6749023 41.27659817 2.62578591 37.07763672 2.5949707 C34.86621483 2.5733919 32.65487833 2.53929073 30.44384766 2.49243164 C27.24863706 2.42535752 24.05519077 2.39795921 20.859375 2.37890625 C19.87684753 2.35107559 18.89432007 2.32324493 17.88201904 2.29457092 C11.15617341 2.31461994 7.37574037 3.78623458 3 9 Z " fill="#FDFDFE" transform="translate(0,0)"/>
<path d="M0 0 C0.98484375 -0.00128906 1.9696875 -0.00257812 2.984375 -0.00390625 C4.02078125 -0.00003906 5.0571875 0.00382812 6.125 0.0078125 C7.67960937 0.00201172 7.67960937 0.00201172 9.265625 -0.00390625 C10.25046875 -0.00261719 11.2353125 -0.00132813 12.25 0 C13.16007812 0.00112793 14.07015625 0.00225586 15.0078125 0.00341797 C17.125 0.1328125 17.125 0.1328125 18.125 1.1328125 C18.2233721 2.46324875 18.25578592 3.79874594 18.2578125 5.1328125 C18.25974609 6.339375 18.25974609 6.339375 18.26171875 7.5703125 C18.25785156 8.4159375 18.25398438 9.2615625 18.25 10.1328125 C18.25580078 11.40125 18.25580078 11.40125 18.26171875 12.6953125 C18.26042969 13.4996875 18.25914063 14.3040625 18.2578125 15.1328125 C18.25668457 15.8753125 18.25555664 16.6178125 18.25439453 17.3828125 C18.125 19.1328125 18.125 19.1328125 17.125 20.1328125 C15.50242456 20.2319782 13.87560169 20.26361027 12.25 20.265625 C11.26515625 20.26691406 10.2803125 20.26820312 9.265625 20.26953125 C8.22921875 20.26566406 7.1928125 20.26179688 6.125 20.2578125 C4.57039063 20.26361328 4.57039063 20.26361328 2.984375 20.26953125 C1.99953125 20.26824219 1.0146875 20.26695313 0 20.265625 C-0.91007812 20.26449707 -1.82015625 20.26336914 -2.7578125 20.26220703 C-4.875 20.1328125 -4.875 20.1328125 -5.875 19.1328125 C-5.9733721 17.80237625 -6.00578592 16.46687906 -6.0078125 15.1328125 C-6.00910156 14.3284375 -6.01039062 13.5240625 -6.01171875 12.6953125 C-6.00785156 11.8496875 -6.00398438 11.0040625 -6 10.1328125 C-6.00386719 9.2871875 -6.00773437 8.4415625 -6.01171875 7.5703125 C-6.01042969 6.7659375 -6.00914063 5.9615625 -6.0078125 5.1328125 C-6.00668457 4.3903125 -6.00555664 3.6478125 -6.00439453 2.8828125 C-5.72986506 -0.83006913 -3.12428967 0.00387217 0 0 Z " fill="#FCFDFE" transform="translate(27.875,24.8671875)"/>
<path d="M0 0 C0.99 0.33 1.98 0.66 3 1 C3 1.99 3 2.98 3 4 C4.32 4.33 5.64 4.66 7 5 C6.67 5.99 6.34 6.98 6 8 C5.01 8 4.02 8 3 8 C2.67 9.32 2.34 10.64 2 12 C1.01 11.67 0.02 11.34 -1 11 C-1 10.01 -1 9.02 -1 8 C-2.32 7.67 -3.64 7.34 -5 7 C-4.67 6.01 -4.34 5.02 -4 4 C-3.01 4 -2.02 4 -1 4 C-0.67 2.68 -0.34 1.36 0 0 Z " fill="#075BC5" transform="translate(33,29)"/>
</svg>
